<?xml version="1.0" encoding="UTF-8" standalone="no"?>
<!DOCTYPE svg PUBLIC "-//W3C//DTD SVG 1.1//EN" "http://www.w3.org/Graphics/SVG/1.1/DTD/svg11.dtd">
<svg width="100%" height="100%" viewBox="0 0 1000 1000" version="1.1" xmlns="http://www.w3.org/2000/svg"
     xml:space="preserve"
     style="fill-rule:evenodd;clip-rule:evenodd;stroke-linejoin:round;stroke-miterlimit:2;">
    <path d="M1000,210.406C1000,94.28 905.72,0 789.594,0L210.406,0C94.28,0 0,94.28 0,210.406L0,789.594C0,905.72 94.28,1000 210.406,1000L789.594,1000C905.72,1000 1000,905.72 1000,789.594L1000,210.406Z"
          style="fill:rgb(85,180,135);"/>
    <g transform="matrix(58.6325,0,0,58.6325,-9292.07,-20997.6)">
        <g transform="matrix(12,0,0,12,160.102,371.029)">
            <path d="M0.084,0L0.084,-0.73L0.323,-0.73C0.37,-0.73 0.411,-0.721 0.446,-0.703C0.481,-0.685 0.508,-0.659 0.528,-0.626C0.547,-0.593 0.556,-0.554 0.556,-0.51C0.556,-0.466 0.546,-0.427 0.527,-0.394C0.508,-0.361 0.481,-0.335 0.446,-0.317C0.41,-0.299 0.37,-0.29 0.323,-0.29L0.192,-0.29L0.192,0L0.084,0ZM0.323,-0.386C0.36,-0.386 0.39,-0.397 0.412,-0.42C0.435,-0.443 0.446,-0.473 0.446,-0.51C0.446,-0.547 0.435,-0.577 0.412,-0.6C0.39,-0.623 0.36,-0.634 0.323,-0.634L0.192,-0.634L0.192,-0.386L0.323,-0.386Z"
                  style="fill:white;fill-rule:nonzero;"/>
        </g>
        <g transform="matrix(12,0,0,12,166.582,371.029)">
            <path d="M0.304,0.01C0.235,0.01 0.181,-0.009 0.141,-0.048C0.1,-0.086 0.08,-0.138 0.08,-0.203L0.08,-0.527C0.08,-0.592 0.1,-0.644 0.141,-0.683C0.181,-0.721 0.235,-0.74 0.304,-0.74C0.372,-0.74 0.426,-0.721 0.467,-0.682C0.507,-0.643 0.527,-0.592 0.527,-0.527L0.419,-0.527C0.419,-0.564 0.409,-0.593 0.389,-0.614C0.369,-0.635 0.341,-0.645 0.304,-0.645C0.267,-0.645 0.239,-0.635 0.219,-0.615C0.198,-0.594 0.188,-0.565 0.188,-0.528L0.188,-0.203C0.188,-0.166 0.198,-0.137 0.219,-0.116C0.239,-0.095 0.267,-0.085 0.304,-0.085C0.34,-0.085 0.368,-0.095 0.389,-0.116C0.409,-0.137 0.419,-0.166 0.419,-0.203L0.419,-0.285L0.283,-0.285L0.283,-0.379L0.527,-0.379L0.527,-0.203C0.527,-0.138 0.507,-0.087 0.467,-0.048C0.426,-0.009 0.372,0.01 0.304,0.01Z"
                  style="fill:white;fill-rule:nonzero;"/>
        </g>
    </g>
</svg>
